<?xml version="1.0" encoding="UTF-8"?>
<svg id="Layer_1" data-name="Layer 1" xmlns="http://www.w3.org/2000/svg" viewBox="0 0 59.53 50.83">
  <path d="M59.37,24.81L45.5.62c-.22-.38-.62-.62-1.06-.62H15.9c-.43,0-.82.22-1.05.59L.18,24.78c-.24.39-.24.88,0,1.27l14.68,24.19c.22.37.62.59,1.05.59h28.54c.44,0,.84-.23,1.06-.62l13.86-24.19c.22-.38.22-.84,0-1.22ZM25.48,10.94c0-1.39,1.13-2.51,2.51-2.51h3.53c1.39,0,2.51,1.13,2.51,2.51v15.36c0,1.39-1.13,2.51-2.51,2.51h-3.53c-1.39,0-2.51-1.13-2.51-2.51v-15.36ZM30,40.35c-2.55.17-4.73-1.55-4.88-3.83-.15-2.28,1.8-4.27,4.34-4.43,2.55-.17,4.73,1.55,4.88,3.83.15,2.28-1.8,4.27-4.34,4.43Z"/>
</svg>